<mxfile host="app.diagrams.net" modified="2023-05-30T08:03:17.243Z" agent="Mozilla/5.0 (Windows NT 10.0; Win64; x64) AppleWebKit/537.36 (KHTML, like Gecko) Chrome/113.0.0.0 Safari/537.36 Edg/113.0.1774.57" version="21.3.5" etag="Z7v9z6RebmfWZHmSZu1I" type="github">
  <diagram name="第 1 页" id="jN9uIN4Eb4eKmJw-e117">
    <mxGraphModel>
      <root>
        <mxCell id="0" />
        <mxCell id="1" parent="0" />
      </root>
    </mxGraphModel>
  </diagram>
</mxfile>
